<?xml version="1.0" encoding="UTF-8"?>
<svg id="Layer_2" data-name="Layer 2" xmlns="http://www.w3.org/2000/svg" viewBox="0 0 986.64 398.38">
  <defs>
    <style>
      .cls-1 {
        fill: #fff;
        stroke-width: 0px;
      }
    </style>
  </defs>
  <g id="Layer_1-2" data-name="Layer 1">
    <g>
      <path class="cls-1" d="m643.48,394.05L626.94,4.33h13.23l16.13,389.72h-12.82Zm0,0v-77.94h25.02v77.94h-25.02Zm12.2,0L671.81,4.33h13.23l-16.54,389.72h-12.82Zm16.13-311.78V4.33h25.02v77.94h-25.02Zm28.74,311.78L684,4.33h12.82l16.54,389.72h-12.82Zm0,0v-77.94h25.02v77.94h-25.02Zm11.79,0L728.87,4.33h12.82l-16.13,389.72h-13.23Z"/>
      <path class="cls-1" d="m757.31,394.05V4.33h12.61v155.89h29.77V4.33h12.61v389.72h-12.61v-168.88h-29.77v168.88h-12.61Z"/>
      <path class="cls-1" d="m829.3,394.05V4.33h12.61v389.72h-12.61Z"/>
      <path class="cls-1" d="m856.8,82.28V4.33h61.2v77.94h-24.19v311.78h-12.82V82.28h-24.19Z"/>
      <path class="cls-1" d="m932.88,394.05V4.33h53.75v77.94h-41.14v77.94h41.14v64.95h-41.14v90.94h41.14v77.94h-53.75Z"/>
    </g>
    <g>
      <path class="cls-1" d="m0,394.05V4.33h24.19c7.44,0,13.47,2.71,18.09,8.12,4.62,5.41,7.89,13.26,9.82,23.55,1.93,10.28,2.89,23,2.89,38.16v99.05c0,15.16-.97,27.88-2.89,38.16-1.93,10.28-5.2,18.13-9.82,23.54-4.62,5.41-10.65,8.12-18.09,8.12h-11.58v151.02H0Zm12.61-215.97h11.58c4.68,0,8.34-1.08,10.96-3.25,2.62-2.17,4.48-5.86,5.58-11.1,1.1-5.23,1.65-12.36,1.65-21.38v-24.36c0-9.02-.55-16.14-1.65-21.38-1.1-5.23-2.96-8.93-5.58-11.1-2.62-2.17-6.27-3.25-10.96-3.25h-11.58v95.81Z"/>
      <path class="cls-1" d="m65.79,394.05L88.94,4.33h13.03l-22.95,389.72h-13.23Zm12.41-95.81v-64.95h46.1v64.95h-46.1Zm10.75-215.97V4.33h25.02v77.94h-25.02Zm34.53,311.78L100.73,4.33h13.23l22.74,389.72h-13.23Z"/>
      <path class="cls-1" d="m145.28,82.27V4.33h61.2v77.94h-24.19v311.78h-12.82V82.27h-24.19Z"/>
      <path class="cls-1" d="m221.36,394.05V4.33h24.19c7.44,0,13.47,2.71,18.09,8.12,4.62,5.41,7.89,13.26,9.82,23.55,1.93,10.28,2.89,23,2.89,38.16v90.94c0,15.16-.97,27.97-2.89,38.43-1.93,10.47-5.2,18.4-9.82,23.82-4.62,5.41-10.65,8.12-18.09,8.12h-11.58v158.6h-12.61Zm12.61-223.55h11.58c4.68,0,8.34-1.08,10.96-3.25,2.62-2.17,4.48-5.86,5.58-11.1,1.1-5.23,1.65-12.36,1.65-21.38v-16.78c0-9.02-.55-16.14-1.65-21.38-1.1-5.23-2.96-8.93-5.58-11.1-2.62-2.17-6.27-3.25-10.96-3.25h-11.58v88.23Zm33.49,223.55l-31.63-223.55h14.47l31.63,223.55h-14.47Z"/>
      <path class="cls-1" d="m296.93,394.05V4.33h12.61v389.72h-12.61Z"/>
      <path class="cls-1" d="m354.03,398.38c-6.89,0-12.34-2.71-16.33-8.12-4-5.41-6.86-13.26-8.58-23.55-1.73-10.28-2.58-23-2.58-38.16V69.83c0-15.16.86-27.88,2.58-38.16,1.72-10.28,4.58-18.13,8.58-23.55,4-5.41,9.44-8.12,16.33-8.12s12.54,2.71,16.54,8.12c4,5.41,6.82,13.26,8.48,23.55,1.65,10.28,2.48,23,2.48,38.16v64.41h-12.61v-25.98c0-6.85-.38-12.45-1.14-16.78-.76-4.33-2.24-7.66-4.45-10.01-2.21-2.34-5.31-3.52-9.3-3.52-3.72,0-6.65,1.18-8.79,3.52-2.14,2.35-3.69,5.68-4.65,10.01-.97,4.33-1.45,9.93-1.45,16.78v181.87c0,6.5.48,12,1.45,16.51.96,4.52,2.51,7.94,4.65,10.28,2.14,2.35,5.07,3.52,8.79,3.52,4,0,7.1-1.17,9.3-3.52,2.2-2.34,3.69-5.77,4.45-10.28.76-4.51,1.14-10.01,1.14-16.51v-25.98h12.61v64.41c0,15.16-.83,27.88-2.48,38.16-1.65,10.28-4.48,18.13-8.48,23.55-4,5.41-9.51,8.12-16.54,8.12Z"/>
      <path class="cls-1" d="m398.52,394.05V4.33h12.61v160.76h16.95v64.95h-16.95v164.01h-12.61Zm15.3-164.01L445.04,4.33h14.06l-31.01,225.71h-14.27Zm37.21,164.01l-35.77-228.96h15.09l35.77,228.96h-15.09Z"/>
    </g>
  </g>
</svg>